<svg xmlns="http://www.w3.org/2000/svg" xmlns:xlink="http://www.w3.org/1999/xlink" width="744.969" height="727.967" viewBox="0 0 744.969 727.967">
  <defs>
    <filter id="Path_302">
      <feOffset dx="12" dy="12" input="SourceAlpha"/>
      <feGaussianBlur stdDeviation="6" result="blur"/>
      <feFlood flood-opacity="0.161" result="color"/>
      <feComposite operator="out" in="SourceGraphic" in2="blur"/>
      <feComposite operator="in" in="color"/>
      <feComposite operator="in" in2="SourceGraphic"/>
    </filter>
  </defs>
  <g id="Component_26_1" data-name="Component 26 – 1" transform="translate(0 1)">
    <path id="Path_294" data-name="Path 294" d="M606.791,373.839l-35.717,44.8a55.384,55.384,0,0,0-68.761,86.225L458.93,559.262a17.91,17.91,0,0,1-5,4.346,15.318,15.318,0,0,1-1.449.777q-.454.217-.909.4a16.53,16.53,0,0,1-2.818.856,18.253,18.253,0,0,1-3.872.422,18.067,18.067,0,0,1-6.019-1.027,16.223,16.223,0,0,1-2.265-.961,17.929,17.929,0,0,1-3.148-2.055,16.633,16.633,0,0,1-1.857-1.752,18.14,18.14,0,0,1-2.977-4.412L310.015,309.6a20.642,20.642,0,0,1-.817-1.962,18.542,18.542,0,0,1-.566-1.976c-.079-.369-.158-.751-.211-1.119-.039-.263-.079-.514-.118-.777a17.226,17.226,0,0,1,.092-4.662c-.013-.013-.013-.013,0-.013a16.733,16.733,0,0,1,.593-2.555v-.013a17.5,17.5,0,0,1,1.343-3.2,13.112,13.112,0,0,1,.9-1.488,17.259,17.259,0,0,1,1.027-1.4,15.142,15.142,0,0,1,1.146-1.291,17.712,17.712,0,0,1,12.709-5.413h.013a18.6,18.6,0,0,1,4.122.474l266.485,60.82a18.019,18.019,0,0,1,10.062,28.816" transform="translate(97.699 89.947)" fill="#003c71"/>
    <path id="Path_295" data-name="Path 295" d="M596.025,364.731,565.839,402.6a65.936,65.936,0,0,0-79.851,100.12l-37.825,47.439a7.334,7.334,0,0,1-5.821,2.832,7.462,7.462,0,0,1-6.783-4.241l-118.6-246.256a7.235,7.235,0,0,1,.382-7.191,7.392,7.392,0,0,1,6.229-3.569h.013a7.613,7.613,0,0,1,1.778.211l266.472,60.82a7.494,7.494,0,0,1,4.188,11.972" transform="translate(100.234 92.483)" fill="#003c71" stroke="#fff" stroke-width="2"/>
    <path id="Path_296" data-name="Path 296" d="M313.826,286.418l-213.7-170.409a17.995,17.995,0,0,0-28.8,10.075L57.392,187.128a55.415,55.415,0,0,1-16.925,108.18,56.219,56.219,0,0,1-7.637-.527L18.551,357.313A18.035,18.035,0,0,0,36.043,379.36a18.228,18.228,0,0,0,4.083-.461L306.6,318.079a18.023,18.023,0,0,0,7.229-31.661m-3.937,15.765a7.3,7.3,0,0,1-5.638,5.624l-266.47,60.82a7.825,7.825,0,0,1-1.738.2,7.426,7.426,0,0,1-5.808-2.858,7.33,7.33,0,0,1-1.409-6.309l12.288-53.813a65.954,65.954,0,0,0,28.54-125.09L81.6,128.428a7.5,7.5,0,0,1,7.349-5.834,7.258,7.258,0,0,1,4.61,1.659l213.7,170.409a7.293,7.293,0,0,1,2.634,7.52" transform="translate(5.732 35.525)" fill="#bb16a3"/>
    <path id="Path_297" data-name="Path 297" d="M307.353,299.646a7.3,7.3,0,0,1-5.638,5.624L35.244,366.09a7.825,7.825,0,0,1-1.738.2,7.426,7.426,0,0,1-5.808-2.858,7.33,7.33,0,0,1-1.409-6.309l12.288-53.813a65.954,65.954,0,0,0,28.54-125.09l11.945-52.325a7.5,7.5,0,0,1,7.349-5.834,7.258,7.258,0,0,1,4.61,1.659l213.7,170.409a7.293,7.293,0,0,1,2.634,7.52" transform="translate(8.27 38.061)" fill="#bb16a3" stroke="#fff" stroke-width="2"/>
    <path id="Path_298" data-name="Path 298" d="M140.748,60.08c-.54-.935-1.027-1.9-1.488-2.871.461.975.961,1.936,1.488,2.871" transform="translate(44.147 18.137)" fill="#fff"/>
    <path id="Path_299" data-name="Path 299" d="M333.794,11.665a16.511,16.511,0,0,0-.711-1.633c-.184-.369-.369-.724-.579-1.067a8.163,8.163,0,0,0-.579-.909A17.962,17.962,0,0,0,309.1,1.813L247.951,31.262a55.41,55.41,0,1,1-99.843,48.084L95.4,104.725a17.8,17.8,0,0,0-5.321,3.885c-.3.3-.579.632-.843.948a18.715,18.715,0,0,0-2.055,3.148,16.228,16.228,0,0,0-.961,2.265,17.955,17.955,0,0,0,5.769,20.085l213.7,170.409a17.671,17.671,0,0,0,11.142,3.964,19.282,19.282,0,0,0,2.608-.184c.58-.092,1.146-.2,1.7-.342a18.437,18.437,0,0,0,5.518-2.357A17,17,0,0,0,328.737,305q.652-.573,1.264-1.185c.4-.421.777-.856,1.146-1.317a17.53,17.53,0,0,0,2.924-5.479c.184-.579.342-1.172.474-1.791a18.217,18.217,0,0,0,.4-3.846V18.052a18.1,18.1,0,0,0-1.146-6.388M324.4,291.386a7.464,7.464,0,0,1-7.573,7.507,7.186,7.186,0,0,1-4.583-1.673L98.549,126.811a7.486,7.486,0,0,1,1.422-12.591l43.936-21.164A65.938,65.938,0,0,0,264.124,55.6a65.307,65.307,0,0,0-2.818-19.084L313.67,11.309a7.362,7.362,0,0,1,3.253-.764,7.512,7.512,0,0,1,7.481,7.507Z" transform="translate(27.008 0.004)" fill="#eb6323"/>
    <path id="Path_300" data-name="Path 300" d="M333.794,11.665c-.211-.553-.448-1.106-.711-1.633-.184-.369-.369-.724-.579-1.067a10.653,10.653,0,0,0-.579-.909A17.962,17.962,0,0,0,309.1,1.813L247.951,31.262a55.41,55.41,0,1,1-99.843,48.084L95.4,104.725a17.8,17.8,0,0,0-5.321,3.885c-.3.3-.579.632-.843.948a18.715,18.715,0,0,0-2.055,3.148,17.19,17.19,0,0,0-.961,2.265,17.955,17.955,0,0,0,5.769,20.085l213.7,170.409a17.671,17.671,0,0,0,11.142,3.964,19.282,19.282,0,0,0,2.608-.184c.58-.092,1.146-.2,1.7-.342a18.437,18.437,0,0,0,5.518-2.357A17,17,0,0,0,328.737,305q.652-.573,1.264-1.185c.4-.421.777-.856,1.146-1.317a17.53,17.53,0,0,0,2.924-5.479c.184-.579.342-1.172.474-1.791a18.217,18.217,0,0,0,.4-3.846V18.052a18.1,18.1,0,0,0-1.146-6.388M324.4,291.386a7.464,7.464,0,0,1-7.573,7.507,7.186,7.186,0,0,1-4.583-1.673L98.549,126.811a7.486,7.486,0,0,1,1.422-12.591l43.936-21.164A65.938,65.938,0,0,0,264.124,55.6a65.307,65.307,0,0,0-2.818-19.084L313.67,11.309a7.362,7.362,0,0,1,3.253-.764,7.512,7.512,0,0,1,7.481,7.507Z" transform="translate(27.008 0.004)" fill="#eb6323"/>
    <path id="Path_301" data-name="Path 301" d="M321.868,15.516V288.849a7.464,7.464,0,0,1-7.573,7.507,7.186,7.186,0,0,1-4.583-1.673L96.013,124.275a7.486,7.486,0,0,1,1.422-12.591L141.371,90.52A65.938,65.938,0,0,0,261.588,53.064a65.308,65.308,0,0,0-2.818-19.084L311.134,8.773a7.363,7.363,0,0,1,3.253-.764,7.512,7.512,0,0,1,7.481,7.507" transform="translate(29.545 2.539)" fill="#eb6323" stroke="#fff" stroke-width="2"/>
    <g data-type="innerShadowGroup">
      <path id="Path_302-2" data-name="Path 302" d="M533.691,134.927,320.084,305.441a18.016,18.016,0,0,1-29.264-14.079V18.042A18.024,18.024,0,0,1,316.66,1.8l61.189,29.448A55.4,55.4,0,1,0,477.691,79.31l52.562,25.3a18.014,18.014,0,0,1,3.437,30.318" transform="translate(92.193)" fill="#007fae"/>
      <g transform="matrix(1, 0, 0, 1, 0, -1)" filter="url(#Path_302)">
        <path id="Path_302-3" data-name="Path 302" d="M533.691,134.927,320.084,305.441a18.016,18.016,0,0,1-29.264-14.079V18.042A18.024,18.024,0,0,1,316.66,1.8l61.189,29.448A55.4,55.4,0,1,0,477.691,79.31l52.562,25.3a18.014,18.014,0,0,1,3.437,30.318" transform="translate(92.19 1)" fill="#fff"/>
      </g>
    </g>
    <path id="Path_303" data-name="Path 303" d="M308.846,10.536a7.448,7.448,0,0,1,3.244.761l52.384,25.212a65.992,65.992,0,0,0,63.131,85.05,66.352,66.352,0,0,0,54.279-28.537l43.8,21.084a7.478,7.478,0,0,1,1.43,12.587L313.507,297.211a7.216,7.216,0,0,1-4.586,1.671,7.471,7.471,0,0,1-7.565-7.52V18.042a7.514,7.514,0,0,1,7.49-7.506m0-10.536A18.044,18.044,0,0,0,290.82,18.042v273.32a18.029,18.029,0,0,0,18.1,18.056,17.741,17.741,0,0,0,11.163-3.977L533.691,134.927a18.014,18.014,0,0,0-3.437-30.318l-52.562-25.3a55.4,55.4,0,1,1-99.843-48.058L316.66,1.8A17.982,17.982,0,0,0,308.846,0" transform="translate(92.193)" fill="#007fae" stroke="#fff" stroke-width="2"/>
    <path id="Path_304" data-name="Path 304" d="M598.349,378.9l-266.485-60.82a18.021,18.021,0,0,1-7.217-31.661l213.7-170.409a18.018,18.018,0,0,1,28.8,10.075l13.934,61.044a55.415,55.415,0,0,0,16.937,108.18,56.224,56.224,0,0,0,7.639-.527l14.276,62.545A18.02,18.02,0,0,1,598.349,378.9" transform="translate(100.762 35.525)" fill="#ff585d"/>
    <path id="Path_305" data-name="Path 305" d="M549.521,122.6a7.512,7.512,0,0,1,7.357,5.832l11.943,52.318a65.957,65.957,0,0,0,28.556,125.094l12.286,53.825a7.333,7.333,0,0,1-1.425,6.308,7.409,7.409,0,0,1-5.795,2.855,7.918,7.918,0,0,1-1.749-.2L334.21,307.808a7.485,7.485,0,0,1-2.994-13.152l213.7-170.413a7.23,7.23,0,0,1,4.6-1.646m0-10.536a17.8,17.8,0,0,0-11.175,3.948l-213.7,170.409a18.021,18.021,0,0,0,7.217,31.661L598.349,378.9a18.317,18.317,0,0,0,4.093.467,18.038,18.038,0,0,0,17.493-22.04l-14.276-62.545a56.229,56.229,0,0,1-7.639.527,55.415,55.415,0,0,1-16.937-108.18l-13.934-61.044a18.013,18.013,0,0,0-17.628-14.024" transform="translate(100.762 35.525)" fill="#ff585d" stroke="#fff" stroke-width="2"/>
    <path id="Path_306" data-name="Path 306" d="M434.306,584.861H371.129a55.413,55.413,0,0,0-110.827,0H197.125a18.018,18.018,0,0,1-16.239-25.84L299.47,312.765a18.024,18.024,0,0,1,32.478,0l118.6,246.256a18.018,18.018,0,0,1-16.239,25.84" transform="translate(56.77 95.918)" fill="#799900"/>
    <path id="Path_307" data-name="Path 307" d="M315.714,313.1a7.281,7.281,0,0,1,6.742,4.239L441.056,563.6a7.482,7.482,0,0,1-6.75,10.727H380.824a65.958,65.958,0,0,0-130.217,0H197.125a7.482,7.482,0,0,1-6.746-10.732L308.962,317.342a7.3,7.3,0,0,1,6.752-4.243m0-10.536a17.817,17.817,0,0,0-16.244,10.2L180.886,559.022a18.018,18.018,0,0,0,16.239,25.84H260.3a55.413,55.413,0,0,1,110.827,0h63.177a18.018,18.018,0,0,0,16.239-25.84l-118.6-246.257a17.8,17.8,0,0,0-16.234-10.2" transform="translate(56.77 95.917)" fill="#799900" stroke="#fff" stroke-width="2"/>
    <path id="Path_308" data-name="Path 308" d="M328.457,309.6,209.873,555.864a18.023,18.023,0,0,1-30.331,3.411l-43.369-54.393a55.38,55.38,0,0,0-68.748-86.225L31.68,373.826a18.015,18.015,0,0,1,10.075-28.8L308.214,284.2A18.018,18.018,0,0,1,328.457,309.6" transform="translate(8.791 89.947)" fill="#323e49"/>
    <path id="Path_309" data-name="Path 309" d="M312.355,294.266a7.393,7.393,0,0,1,6.24,3.569,7.222,7.222,0,0,1,.369,7.19L200.378,551.295a7.426,7.426,0,0,1-6.776,4.235,7.335,7.335,0,0,1-5.823-2.824l-37.826-47.44a65.266,65.266,0,0,0,13.718-40.251,65.934,65.934,0,0,0-93.553-59.879l-30.2-37.877A7.478,7.478,0,0,1,44.1,355.3l266.457-60.82a8.072,8.072,0,0,1,1.8-.209m0-10.536a18.6,18.6,0,0,0-4.141.473L41.756,345.023a18.015,18.015,0,0,0-10.075,28.8l35.744,44.831a55.381,55.381,0,0,1,68.748,86.225l43.369,54.393a18.02,18.02,0,0,0,30.331-3.411L328.457,309.595a18.038,18.038,0,0,0-16.1-25.865" transform="translate(8.791 89.947)" fill="#323e49" stroke="#fff" stroke-width="2"/>
    <path id="Path_310" data-name="Path 310" d="M452,53.337q0,.869-.039,1.738c-.039,1.119-.119,2.239-.237,3.332-.026.25-.053.487-.079.724-.066.5-.132,1-.211,1.488-.053.3-.105.593-.158.9-.053.277-.105.566-.158.843-.079.342-.145.685-.224,1.027,0,.026-.013.066-.013.092-.026.092-.039.2-.066.29-.079.369-.171.738-.277,1.119-.171.7-.369,1.383-.579,2.055-.013.04-.026.092-.039.132-.184.606-.382,1.212-.606,1.8-.224.632-.461,1.264-.724,1.9-.158.4-.316.764-.487,1.146s-.329.764-.514,1.133c-.211.448-.422.882-.645,1.317-.514.988-1.054,1.962-1.633,2.924-.119.2-.237.408-.382.606a1.1,1.1,0,0,1-.105.158c-.119.211-.263.435-.408.645-.171.277-.356.54-.54.8q-.435.652-.909,1.264c-.263.369-.54.738-.83,1.093-.224.3-.448.579-.7.869-.224.29-.461.566-.711.843s-.487.553-.738.83c-.553.619-1.12,1.212-1.712,1.791l-.092.092c-.04.04-.092.079-.132.119-.29.277-.566.553-.869.83-.645.606-1.317,1.2-2,1.752-.277.237-.553.461-.843.685a.046.046,0,0,1-.026.013c-.579.461-1.172.909-1.778,1.33-.013.013-.026.026-.039.026-.237.171-.474.342-.711.5-.369.25-.724.487-1.093.724-.4.25-.8.5-1.212.751s-.79.461-1.185.685c-.053.026-.105.066-.158.092-.105.053-.211.119-.316.171-.764.4-1.528.79-2.318,1.159a.532.532,0,0,1-.119.066c-.553.263-1.119.514-1.686.751q-.672.277-1.383.553c-.514.2-1.04.4-1.567.566-.342.119-.672.237-1.014.329a1.161,1.161,0,0,1-.2.066l-.909.277c-.369.105-.738.211-1.106.3-.421.105-.856.211-1.291.316l-.356.079c-.54.132-1.08.237-1.633.329s-1.093.2-1.646.277c-.474.079-.935.132-1.409.184l-.658.079c-.435.039-.869.079-1.291.105-.369.04-.738.053-1.106.066-.316.026-.645.04-.961.04-.461.013-.909.026-1.37.026a46.188,46.188,0,0,1-46.188-46.2c0-.4,0-.79.013-1.185s.026-.79.053-1.185c.013-.461.053-.922.079-1.383.026-.237.039-.474.066-.711.026-.316.066-.632.105-.935.053-.448.105-.9.171-1.33.039-.277.079-.527.119-.79a.079.079,0,0,0,.013-.053c.013-.119.039-.224.053-.329.2-1.106.422-2.213.7-3.293.079-.316.158-.619.237-.922a3.544,3.544,0,0,1,.092-.356c.184-.645.382-1.291.593-1.923.132-.408.277-.817.421-1.225.158-.435.329-.882.487-1.317.29-.7.579-1.383.882-2.068.211-.461.421-.909.645-1.357.237-.474.474-.948.724-1.422.039-.079.079-.145.119-.224.224-.4.435-.777.658-1.172.263-.448.54-.9.8-1.33.29-.448.566-.882.856-1.317q.474-.691.948-1.343c.316-.421.619-.843.948-1.251.026-.04.053-.066.066-.092.3-.4.619-.764.935-1.146s.672-.8,1.027-1.185c.066-.079.132-.145.184-.211.329-.356.645-.711.988-1.054l1.027-1.027c.342-.329.7-.659,1.054-.988.079-.079.158-.145.237-.211.342-.316.7-.619,1.054-.922.4-.342.8-.672,1.225-1,.382-.3.777-.606,1.172-.9.342-.263.685-.5,1.027-.738.276-.2.566-.4.856-.579.342-.237.7-.461,1.054-.685s.711-.448,1.067-.659c.145-.079.29-.171.435-.25.79-.448,1.594-.882,2.423-1.291.342-.171.685-.342,1.027-.5l.079-.04c.593-.277,1.2-.54,1.8-.79.5-.211.988-.408,1.5-.593.4-.158.8-.29,1.212-.435s.8-.277,1.212-.4c.356-.119.7-.224,1.054-.316l.869-.237c.461-.119.922-.237,1.383-.342.277-.066.553-.132.83-.184.2-.04.4-.079.606-.119s.4-.079.606-.119c.066-.013.132-.026.211-.04.487-.092.988-.171,1.475-.237.553-.079,1.106-.158,1.659-.211.487-.053.988-.105,1.488-.145.4-.026.777-.053,1.172-.066.329-.026.672-.04,1-.04.461-.013.922-.026,1.383-.026A46.2,46.2,0,0,1,452,53.337" transform="translate(114.001 2.268)" fill="#007fae"/>
    <path id="Path_311" data-name="Path 311" d="M542.089,432.5a46.195,46.195,0,1,1-21.652-39.129A46.185,46.185,0,0,1,542.089,432.5" transform="translate(142.562 122.467)" fill="#003c71"/>
    <path id="Path_312" data-name="Path 312" d="M587.889,220.237c0,.316,0,.645-.013.961s-.013.645-.04.961c0,.171,0,.329-.013.487-.026.659-.079,1.317-.145,1.962-.066.724-.145,1.449-.25,2.16-.079.553-.158,1.106-.263,1.646-.039.237-.079.474-.132.7a7.4,7.4,0,0,1-.158.777c-.053.263-.119.514-.171.777a3.938,3.938,0,0,1-.105.421c-.132.606-.29,1.2-.461,1.791q-.316,1.106-.672,2.173-.336.988-.711,1.936c-.132.316-.25.645-.382.961s-.276.645-.421.961a2.485,2.485,0,0,1-.145.329c-.237.527-.474,1.04-.737,1.554l-.435.869c-.171.316-.342.645-.527.961-.329.606-.685,1.2-1.041,1.791-.342.553-.7,1.106-1.067,1.646a.8.8,0,0,1-.092.132,38.386,38.386,0,0,1-2.423,3.24,1.786,1.786,0,0,1-.145.184c-.342.421-.7.83-1.067,1.238-.119.145-.25.29-.382.435-.342.369-.672.738-1.014,1.093a46.835,46.835,0,0,1-4.662,4.188c-.408.316-.83.632-1.251.948-.171.132-.342.263-.527.382-.119.092-.25.184-.369.263-.013.013-.039.026-.053.039-.316.224-.619.435-.935.632-.184.132-.369.25-.566.369-.039.026-.092.053-.132.079-.421.263-.83.527-1.264.777-.474.29-.961.566-1.449.817-.237.132-.461.25-.7.382l-.237.119c-.435.224-.869.435-1.317.645-.579.277-1.159.527-1.738.777a1.79,1.79,0,0,1-.3.119c-.593.263-1.185.487-1.791.711h-.013c-.579.211-1.159.421-1.752.606-.158.053-.329.105-.5.158-.092.026-.171.053-.263.079-.382.118-.777.224-1.185.329-.079.026-.171.053-.25.079a3.009,3.009,0,0,1-.369.092c-.514.145-1.054.263-1.58.382-.092.026-.2.039-.29.066-.5.105-1,.2-1.5.29h-.013c-.263.053-.54.105-.8.145-.487.079-.975.145-1.475.211l-.3.04h-.013c-.738.079-1.488.158-2.239.211-.316.026-.632.04-.948.053s-.645.04-.975.04c-.474.013-.935.026-1.409.026a46.208,46.208,0,0,1-46.2-46.2c0-.553.013-1.119.04-1.673,0-.237.013-.461.026-.7s.026-.474.04-.7.039-.461.053-.7c.04-.619.105-1.238.184-1.857.053-.474.119-.948.184-1.409l.04-.237.158-.909c.145-.843.329-1.7.527-2.529.066-.277.132-.553.211-.817V208.7c.105-.421.211-.843.342-1.264q.237-.869.514-1.7a.049.049,0,0,0,.013-.04q.277-.849.593-1.659.336-.889.711-1.778c.105-.263.224-.514.342-.777.184-.421.369-.843.579-1.264.158-.316.3-.619.461-.922l.079-.158c.263-.5.527-.988.79-1.475.263-.461.527-.922.8-1.37q.277-.494.593-.948c.4-.632.817-1.251,1.251-1.844.184-.277.382-.553.579-.8a.557.557,0,0,1,.066-.092c.053-.066.092-.119.132-.171.408-.54.816-1.067,1.251-1.58.224-.29.461-.566.711-.843.382-.448.764-.869,1.159-1.291.29-.316.58-.619.882-.922.079-.079.145-.158.224-.224.356-.356.724-.724,1.106-1.067a44.7,44.7,0,0,1,4.32-3.569q.593-.454,1.225-.869c.092-.066.2-.132.29-.2.277-.184.553-.369.83-.54.211-.145.435-.29.659-.421.395-.25.8-.5,1.225-.724,0-.013,0-.013.013-.013.435-.25.882-.5,1.33-.738,1.2-.645,2.423-1.225,3.688-1.752.237-.092.461-.2.7-.29s.474-.2.711-.277c.553-.224,1.119-.421,1.686-.619.4-.132.79-.263,1.2-.382.316-.105.632-.2.948-.29.764-.224,1.528-.421,2.3-.593.29-.066.593-.132.9-.2.632-.145,1.277-.263,1.936-.369a1.153,1.153,0,0,1,.211-.026c.5-.079.988-.158,1.5-.224.04,0,.079-.013.119-.013.579-.079,1.159-.132,1.752-.184.553-.053,1.106-.079,1.659-.105.237-.013.461-.026.7-.026q.83-.039,1.659-.039a46.185,46.185,0,0,1,46.188,46.188" transform="translate(157.08 55.178)" fill="#ff585d"/>
    <path id="Path_313" data-name="Path 313" d="M140.748,60.08c-.54-.935-1.027-1.9-1.488-2.871.461.975.961,1.936,1.488,2.871" transform="translate(44.147 18.137)" fill="#eb6323"/>
    <path id="Path_314" data-name="Path 314" d="M139.26,57.209c.461.975.948,1.936,1.488,2.871-.527-.935-1.027-1.9-1.488-2.871" transform="translate(44.147 18.137)" fill="#eb6323"/>
    <path id="Path_315" data-name="Path 315" d="M228.289,53.337a46.2,46.2,0,0,1-46.2,46.2c-.224,0-.448,0-.685-.013h-.2c-.158,0-.316,0-.474-.013q-.494,0-.988-.04c-.013.013-.013,0-.026,0-.79-.04-1.567-.092-2.344-.171-.211-.026-.421-.04-.619-.066-.909-.105-1.791-.237-2.674-.4a.771.771,0,0,1-.171-.026l-.672-.119c-.408-.079-.817-.171-1.225-.263-.54-.119-1.08-.25-1.62-.382-.487-.132-.975-.263-1.449-.421-.211-.053-.408-.105-.593-.171-.369-.105-.738-.224-1.093-.356q-.77-.257-1.541-.553c-.382-.145-.751-.277-1.119-.435-.079-.026-.158-.066-.237-.092-.435-.184-.856-.369-1.277-.566-.342-.145-.672-.3-1.014-.474-.408-.2-.817-.4-1.212-.606s-.8-.421-1.2-.645c-.2-.119-.408-.224-.619-.342s-.408-.237-.606-.356c-.474-.277-.922-.566-1.37-.856s-.9-.593-1.33-.9c-.738-.5-1.462-1.04-2.16-1.594-.593-.461-1.159-.935-1.712-1.409-.2-.171-.382-.342-.566-.514s-.382-.342-.566-.514c-.4-.356-.777-.724-1.159-1.106s-.751-.751-1.119-1.146-.724-.79-1.08-1.185c-.066-.079-.132-.158-.211-.237-.277-.329-.553-.659-.817-.988-.342-.408-.672-.83-1-1.264s-.645-.856-.948-1.291-.619-.882-.909-1.33-.579-.9-.856-1.357c-.013-.013-.026-.04-.04-.053-.263-.435-.527-.882-.777-1.343-.527-.935-1.027-1.9-1.488-2.871-.171-.369-.356-.751-.514-1.133q-.277-.612-.553-1.264c-.132-.342-.263-.7-.4-1.04l-.316-.869c-.105-.29-.211-.579-.3-.882-.092-.263-.184-.54-.263-.817-.105-.329-.211-.672-.3-1.014-.211-.724-.408-1.462-.566-2.2-.053-.184-.092-.369-.132-.566-.066-.3-.132-.619-.2-.935-.053-.277-.105-.553-.158-.843-.053-.316-.119-.632-.158-.948-.04-.211-.066-.435-.105-.645-.026-.237-.053-.461-.092-.7l-.039-.316a2.349,2.349,0,0,0-.026-.3c-.066-.54-.119-1.067-.158-1.607-.04-.435-.066-.856-.079-1.278-.013-.224-.026-.435-.026-.645q-.04-.869-.04-1.738A46.185,46.185,0,0,1,182.088,7.149c.461,0,.922.013,1.37.026.329,0,.672.013,1,.04.4.013.79.04,1.185.066.5.04,1,.092,1.488.145.553.053,1.106.132,1.659.211.487.066.988.145,1.475.237s.935.171,1.409.277c.277.053.566.119.843.184a44.479,44.479,0,0,1,5.913,1.791q.553.2,1.106.435c.514.211,1.027.435,1.554.672.237.105.487.211.724.329.632.3,1.251.606,1.857.935.474.25.948.5,1.409.777.527.3,1.054.619,1.567.948.421.263.856.54,1.264.817.092.066.184.119.277.184.342.237.685.487,1.027.724.5.369,1,.751,1.488,1.133.421.329.83.672,1.225,1.014l.83.711c.105.092.211.171.3.263a.792.792,0,0,0,.105.105l.553.514c.184.171.369.356.553.527.382.369.764.738,1.119,1.119l.132.132q.731.77,1.422,1.58c.026.013.039.04.066.066.474.553.948,1.133,1.409,1.712.026.04.053.066.079.105.263.342.527.685.79,1.04.026.026.04.053.066.079,0,.013.013.026.026.04.25.342.5.685.738,1.04s.474.7.711,1.054c.079.119.171.25.25.382l.514.83c.2.316.382.632.566.948q.553.968,1.067,1.976c.119.224.237.448.342.672.619,1.278,1.2,2.581,1.7,3.912.105.277.211.553.3.83.145.408.29.817.421,1.225.211.645.408,1.291.593,1.949.092.29.171.593.237.9.092.316.171.645.237.975s.145.632.224.961l.277,1.422c.013.079.026.171.04.25.079.408.145.8.2,1.212.066.435.119.882.171,1.317.053.408.092.83.132,1.251v.053c.053.579.092,1.146.119,1.725.026.4.039.79.053,1.185s.013.79.013,1.185" transform="translate(43.082 2.268)" fill="#eb6323"/>
    <path id="Path_316" data-name="Path 316" d="M138.189,432.5c0,.461-.013.909-.026,1.37,0,.329-.013.672-.04,1-.013.487-.053.975-.092,1.462s-.079.961-.145,1.449c-.053.461-.105.9-.171,1.343-.079.527-.158,1.04-.25,1.554a.143.143,0,0,1-.013.066c-.092.527-.2,1.067-.316,1.594s-.237,1.054-.369,1.567c-.105.421-.211.83-.329,1.238-.026.105-.066.211-.092.316-.145.5-.3,1-.461,1.5s-.342,1-.527,1.488-.369.988-.566,1.475c-.158.382-.316.751-.487,1.133-.25.579-.527,1.159-.8,1.738-.237.487-.474.961-.738,1.436-.066.145-.158.3-.237.448-.013.026-.026.04-.04.066-.316.579-.632,1.133-.975,1.686v.013c-.382.632-.777,1.251-1.2,1.857,0,.013,0,.013-.013.026q-.612.909-1.264,1.778a.041.041,0,0,0-.013.026c-.382.5-.764.988-1.159,1.475l-.356.435c-.013.013-.026.04-.053.053-.356.448-.738.869-1.133,1.3a2.279,2.279,0,0,1-.171.2c-.474.527-.948,1.027-1.449,1.528l-.013.013h-.013l-.013.026q-.77.77-1.58,1.5a.028.028,0,0,1-.026.026c-.435.408-.882.79-1.343,1.172s-.935.777-1.409,1.133q-.612.494-1.264.948c-.237.171-.474.356-.724.514s-.487.342-.738.5c-1.04.711-2.12,1.37-3.227,1.976-.435.237-.869.474-1.317.7-.039.026-.092.039-.132.066-.356.184-.711.356-1.08.527s-.724.342-1.093.5c-.527.25-1.067.474-1.594.685-.145.066-.29.119-.435.171-.619.237-1.238.461-1.87.685-.724.237-1.449.461-2.186.672-.487.145-.988.277-1.488.4-.237.066-.474.119-.724.171-.369.092-.738.184-1.119.25q-.533.119-1.067.2c-.29.066-.593.118-.882.158-.487.079-.975.145-1.475.211-.04,0-.092.013-.145.013-.5.066-1.014.119-1.515.158a2.6,2.6,0,0,1-.316.039h-.079c-.487.04-.961.079-1.449.092-.237.013-.474.026-.711.026-.553.026-1.106.039-1.673.039A46.2,46.2,0,0,1,45.8,432.5c0-.487.013-.961.026-1.449q.02-.81.079-1.62c.013-.356.053-.711.079-1.067.013-.119.013-.237.026-.356.013-.079.013-.145.026-.224.04-.474.105-.961.171-1.436s.132-.948.211-1.409c.066-.4.132-.79.211-1.185.066-.342.132-.672.2-1,.053-.237.105-.474.171-.711.079-.369.171-.724.263-1.08.053-.237.119-.474.184-.7q.138-.553.316-1.106c.105-.329.211-.672.316-1s.211-.659.329-.988c.2-.54.4-1.08.606-1.607l.158-.4c.25-.619.514-1.238.79-1.831.277-.632.579-1.251.9-1.857.171-.329.342-.658.527-.988.119-.237.237-.461.369-.672.158-.263.3-.54.461-.8.026-.053.066-.105.092-.158.066-.105.119-.211.184-.3.25-.408.5-.8.764-1.2s.527-.8.8-1.2c.553-.79,1.133-1.58,1.725-2.331.29-.369.593-.724.9-1.08s.619-.724.935-1.08c.066-.079.145-.158.2-.224.29-.316.579-.632.882-.948s.606-.606.909-.909c.25-.25.514-.5.777-.764.066-.066.145-.132.224-.211.369-.316.724-.645,1.093-.961.3-.263.606-.527.922-.79.053-.04.119-.092.184-.145.369-.3.738-.593,1.119-.882s.764-.579,1.159-.856c.659-.474,1.343-.935,2.028-1.383.119-.079.237-.145.356-.224.448-.277.9-.553,1.343-.817l.2-.118c.4-.224.79-.435,1.185-.659.461-.25.935-.487,1.409-.724.435-.211.882-.421,1.33-.632.026-.013.04-.026.066-.026.342-.158.685-.3,1.027-.448.211-.092.421-.171.632-.263.29-.119.579-.237.882-.342a3.2,3.2,0,0,1,.316-.132c.092-.026.171-.066.263-.092.448-.158.909-.316,1.37-.474.5-.171,1.014-.329,1.528-.474.843-.25,1.7-.474,2.555-.672.158-.04.3-.066.461-.105l.211-.039q.691-.158,1.383-.277l.2-.039c.514-.092,1.027-.171,1.541-.25.435-.066.869-.119,1.3-.171.053,0,.119-.013.171-.013.448-.053.882-.092,1.33-.132.474-.039.961-.079,1.449-.092q.494-.04.988-.039c.461-.013.935-.026,1.4-.026A46.185,46.185,0,0,1,138.189,432.5" transform="translate(14.519 122.467)" fill="#323e49"/>
    <path id="Path_317" data-name="Path 317" d="M92.389,220.237a46.2,46.2,0,0,1-46.188,46.2c-.474,0-.935-.013-1.409-.026-.329,0-.659-.013-.975-.04s-.645-.026-.961-.053c-.751-.053-1.5-.132-2.239-.211l-.3-.04c-.474-.053-.948-.132-1.409-.2l-.882-.158c-.342-.066-.685-.118-1.027-.2a3.916,3.916,0,0,1-.566-.119c-.224-.039-.435-.092-.659-.145-.606-.145-1.212-.29-1.817-.461-.356-.092-.711-.184-1.054-.3-.145-.039-.29-.079-.435-.132-.184-.053-.369-.105-.54-.171-.54-.171-1.08-.356-1.607-.553a44.74,44.74,0,0,1-5.2-2.278c-.316-.158-.619-.329-.935-.5-.514-.277-1.04-.566-1.541-.869-.448-.277-.9-.54-1.33-.83-.25-.145-.5-.316-.751-.487-.145-.092-.277-.184-.408-.277-.514-.356-1.027-.724-1.528-1.093a.287.287,0,0,1-.119-.092.4.4,0,0,0-.092-.066c-.514-.4-1.014-.79-1.515-1.2l-.013-.013c-.026-.013-.04-.039-.066-.053-.527-.421-1.04-.869-1.541-1.33a.645.645,0,0,1-.171-.158c-.54-.474-1.067-.975-1.567-1.488-.25-.25-.5-.5-.751-.764l-.04-.039c-.263-.263-.514-.54-.738-.8s-.461-.5-.685-.764c-.013-.026-.04-.04-.053-.066-.25-.277-.487-.566-.711-.843-.119-.132-.224-.277-.329-.408-.382-.461-.751-.922-1.093-1.4-.211-.277-.408-.553-.606-.83-.224-.3-.435-.606-.645-.922q-.553-.81-1.067-1.659c-.04-.066-.079-.132-.132-.211-.263-.448-.527-.9-.777-1.357a6.482,6.482,0,0,1-.329-.579c-.263-.487-.527-.975-.764-1.475-.263-.514-.5-1.014-.738-1.541-.04-.092-.092-.2-.132-.29a.212.212,0,0,1-.04-.118c-.092-.211-.2-.408-.277-.619q-.178-.4-.316-.79c-.013-.026-.026-.066-.04-.092q-.158-.356-.277-.711c-.211-.514-.4-1.04-.579-1.567-.474-1.436-.9-2.9-1.238-4.386-.119-.514-.224-1.027-.329-1.554-.053-.224-.092-.461-.132-.7-.105-.54-.184-1.093-.263-1.659-.105-.7-.184-1.422-.25-2.147-.066-.645-.119-1.3-.145-1.962-.013-.158-.013-.316-.013-.487-.013-.316-.04-.632-.04-.961S0,220.553,0,220.237a46.2,46.2,0,0,1,46.2-46.188c.566,0,1.119.013,1.673.039.237,0,.474.013.711.026.487.013.975.053,1.449.092h.092l.382.039c.487.04.975.092,1.449.158.263.026.5.066.751.105s.5.066.751.105c.316.053.619.092.922.158.777.132,1.554.29,2.318.474.356.079.7.158,1.04.25.369.092.738.2,1.106.3s.724.211,1.093.329.751.224,1.133.356c.342.119.685.237,1.014.369q.415.138.83.316.632.237,1.264.514c.342.145.7.29,1.027.448.685.3,1.357.619,2.028.975q.415.2.83.435c.738.382,1.462.8,2.173,1.251.013.013.026.013.04.026l.079.039a8.757,8.757,0,0,1,.738.474c.632.382,1.238.8,1.844,1.238.3.211.606.435.9.658.263.184.514.382.764.579.329.25.659.527.988.79.527.421,1.054.882,1.554,1.343.211.184.421.382.632.566.369.356.738.7,1.093,1.067l.2.2c.316.316.619.632.922.961.4.421.777.843,1.146,1.277.25.277.487.553.711.843s.474.579.7.869c.29.356.566.724.843,1.106.171.224.329.448.487.672q.336.454.632.909c.211.3.421.619.619.935l.593.948c.25.408.487.83.724,1.238.211.4.435.777.632,1.172s.408.79.606,1.2c.4.79.764,1.607,1.119,2.436.237.553.448,1.106.659,1.673s.408,1.12.606,1.686a.048.048,0,0,0,.013.04c.171.566.356,1.133.514,1.7.092.29.171.566.237.856s.145.54.211.817c.066.237.119.461.171.7.092.382.171.777.25,1.159.145.672.263,1.33.369,2l.039.237c.066.461.132.935.184,1.409.079.619.145,1.238.184,1.857.026.237.04.461.053.7s.026.461.04.7.026.461.026.7c.026.553.04,1.106.04,1.673" transform="translate(0 55.178)" fill="#bb16a3"/>
    <path id="Path_318" data-name="Path 318" d="M155.327,28.379a1.381,1.381,0,0,0-.053.224c-.013,0-.026-.013-.04-.013.026-.079.066-.145.092-.211" transform="translate(49.211 8.997)" fill="#fff"/>
    <path id="Path_319" data-name="Path 319" d="M192.877,22.648c-7.612-5.018-18-5.189-26.143-1.37a20.5,20.5,0,0,0-10.3,10.088.244.244,0,0,0-.026.092l-.013.013a1.38,1.38,0,0,0-.053.224c-.013,0-.026-.013-.04-.013a8.95,8.95,0,0,0-.566,5.492c.474,2.094,1.343,3.885,1.33,6.071a12.457,12.457,0,0,1-4.82,9.68,1.324,1.324,0,0,0,.593,2.2c2.753.4,3.069,3.293,1.673,5.294-.83,1.172.724,2.3,1.8,1.8.184-.092,1.185.882,1.185.909s-1.3,1.027-1.475,1.225a1.328,1.328,0,0,0,.579,2.2c.738.145,1.278,2.41,1.765,2.99a4.837,4.837,0,0,0,2.845,1.594c2.739.54,5.163-.553,7.586-1.659,1.462-.672,3.385-1.567,5.018-1.014,1.422.474,1.936,1.817,2.147,3.161.421,2.739-.026,5.531.975,8.179a1.338,1.338,0,0,0,2.41.316,29.626,29.626,0,0,1,15.027-14.066,1.208,1.208,0,0,0,.487-.342.1.1,0,0,0,.053-.053,1.236,1.236,0,0,0,.382-1.225c-1.383-6.585,3.451-12.762,5.637-18.662.026-.066.066-.145.092-.224a1.439,1.439,0,0,0,.066-.224c2.9-8.547-.751-17.753-8.218-22.679m5.676,22.02c-2.213,3.569-7.915,4.412-11.6,3.293a22.621,22.621,0,0,1-5.584-3.069,13.1,13.1,0,0,0-5.61-2.055c-4.149-.474-8.929,1.027-12.775-1.054a8.633,8.633,0,0,1-4.162-9.351c4.188-9.311,16.2-12.683,25.537-10.536,10.3,2.384,17.767,12.248,14.2,22.771" transform="translate(48.143 5.904)" fill="#fff"/>
    <path id="Path_320" data-name="Path 320" d="M192.8,121.014h-5.036V108.1H192.8c4.058,0,6.863,2.785,6.863,6.419v.037c0,3.635-2.805,6.457-6.863,6.457m3.892-6.457a3.709,3.709,0,0,0-3.892-3.893h-2.2v7.786h2.2a3.679,3.679,0,0,0,3.892-3.856Z" transform="translate(59.524 34.271)" fill="#fff"/>
    <path id="Path_321" data-name="Path 321" d="M207.892,121.037l-1.181-2.9h-5.46l-1.181,2.9h-2.9l5.534-13.007h2.62l5.535,13.007Zm-3.912-9.593-1.716,4.188H205.7Z" transform="translate(62.506 34.248)" fill="#fff"/>
    <path id="Path_322" data-name="Path 322" d="M213.884,110.719v10.294h-2.841V110.719h-3.93V108.1h10.7v2.62Z" transform="translate(65.658 34.27)" fill="#fff"/>
    <path id="Path_323" data-name="Path 323" d="M225.505,121.037l-1.181-2.9h-5.46l-1.181,2.9h-2.9l5.534-13.007h2.62l5.535,13.007Zm-3.912-9.593-1.716,4.188h3.432Z" transform="translate(68.09 34.248)" fill="#fff"/>
    <path id="Path_324" data-name="Path 324" d="M168,138.089a6.616,6.616,0,0,1-6.845-6.642v-.037a6.866,6.866,0,0,1,13.726-.037v.037A6.678,6.678,0,0,1,168,138.089m3.912-6.679A3.924,3.924,0,0,0,168,127.352a3.862,3.862,0,0,0-3.873,4.022v.037a3.923,3.923,0,0,0,3.91,4.059,3.863,3.863,0,0,0,3.875-4.022Z" transform="translate(51.09 39.543)" fill="#fff"/>
    <path id="Path_325" data-name="Path 325" d="M187.36,137.915h-2.472l-2.915-8.449-2.915,8.449h-2.473l-4.408-13.006h3.044l2.675,8.745,2.9-8.782h2.434l2.9,8.782,2.675-8.745h2.97Z" transform="translate(54.582 39.587)" fill="#fff"/>
    <path id="Path_326" data-name="Path 326" d="M197.7,137.814l-6.255-8.209v8.209h-2.8V124.9h2.62l6.05,7.951V124.9h2.805v12.913Z" transform="translate(59.802 39.596)" fill="#fff"/>
    <path id="Path_327" data-name="Path 327" d="M199.7,137.814V124.9h9.741v2.527h-6.918v2.62h6.089v2.527h-6.089v2.712h7.01v2.527Z" transform="translate(63.309 39.596)" fill="#fff"/>
    <path id="Path_328" data-name="Path 328" d="M216.922,137.815l-2.768-4.133h-2.231v4.133h-2.841V124.9h5.9c3.045,0,4.872,1.605,4.872,4.262v.037a4.012,4.012,0,0,1-2.768,4l3.154,4.612Zm.055-8.505c0-1.217-.849-1.845-2.232-1.845h-2.822v3.709H214.8c1.383,0,2.177-.739,2.177-1.827Z" transform="translate(66.281 39.596)" fill="#fff"/>
    <path id="Path_329" data-name="Path 329" d="M224.01,138.043a8.223,8.223,0,0,1-5.479-2.066l1.679-2.011a5.919,5.919,0,0,0,3.855,1.569c1.163,0,1.864-.461,1.864-1.218v-.036c0-.72-.443-1.089-2.6-1.642-2.6-.664-4.28-1.384-4.28-3.948v-.037c0-2.343,1.882-3.892,4.52-3.892a7.482,7.482,0,0,1,4.8,1.641l-1.476,2.14a6.066,6.066,0,0,0-3.357-1.274c-1.089,0-1.661.5-1.661,1.126v.037c0,.848.553,1.126,2.785,1.7,2.618.682,4.1,1.623,4.1,3.873v.037c0,2.564-1.957,4-4.743,4" transform="translate(69.277 39.552)" fill="#fff"/>
    <path id="Path_330" data-name="Path 330" d="M236.243,137.814V132.63H231v5.184h-2.841V124.9H231v5.11h5.239V124.9h2.841v12.913Z" transform="translate(72.33 39.596)" fill="#fff"/>
    <rect id="Rectangle_578" data-name="Rectangle 578" width="2.841" height="12.913" transform="translate(314.636 164.496)" fill="#fff"/>
    <path id="Path_331" data-name="Path 331" d="M248.507,133.94h-2.159v3.875h-2.841V124.9h5.276c3.082,0,4.944,1.827,4.944,4.465v.037c0,2.988-2.325,4.538-5.221,4.538m2.343-4.52c0-1.272-.886-1.956-2.306-1.956h-2.2v3.948H248.6a2,2,0,0,0,2.251-1.956Z" transform="translate(77.195 39.596)" fill="#fff"/>
    <path id="Path_332" data-name="Path 332" d="M343.064,121.014h-5.036V108.1h5.036c4.056,0,6.863,2.785,6.863,6.419v.037c0,3.635-2.807,6.457-6.863,6.457m3.892-6.457a3.709,3.709,0,0,0-3.892-3.893h-2.2v7.786h2.2a3.68,3.68,0,0,0,3.892-3.856Z" transform="translate(107.16 34.271)" fill="#fff"/>
    <path id="Path_333" data-name="Path 333" d="M358.153,121.037l-1.181-2.9h-5.46l-1.181,2.9h-2.9l5.535-13.007h2.618l5.537,13.007Zm-3.91-9.593-1.716,4.188h3.432Z" transform="translate(110.142 34.248)" fill="#fff"/>
    <path id="Path_334" data-name="Path 334" d="M364.146,110.719v10.294H361.3V110.719h-3.929V108.1h10.7v2.62Z" transform="translate(113.293 34.27)" fill="#fff"/>
    <path id="Path_335" data-name="Path 335" d="M375.767,121.037l-1.181-2.9h-5.46l-1.181,2.9h-2.9l5.533-13.007H373.2l5.534,13.007Zm-3.913-9.593-1.716,4.188h3.432Z" transform="translate(115.726 34.248)" fill="#fff"/>
    <path id="Path_336" data-name="Path 336" d="M314.219,137.814v-8.43l-3.635,5.516h-.074l-3.6-5.46v8.375h-2.785V124.9h3.061l3.4,5.46,3.393-5.46h3.065v12.913Z" transform="translate(96.412 39.596)" fill="#fff"/>
    <path id="Path_337" data-name="Path 337" d="M326.157,137.836l-1.181-2.9h-5.46l-1.181,2.9h-2.9l5.535-13.006h2.618l5.537,13.006Zm-3.91-9.593-1.716,4.188h3.432Z" transform="translate(99.998 39.574)" fill="#fff"/>
    <path id="Path_338" data-name="Path 338" d="M336.4,137.814l-6.256-8.209v8.209h-2.8V124.9h2.621l6.05,7.951V124.9h2.8v12.913Z" transform="translate(103.771 39.596)" fill="#fff"/>
    <path id="Path_339" data-name="Path 339" d="M348.276,137.836l-1.181-2.9h-5.46l-1.181,2.9h-2.9l5.535-13.006h2.618l5.537,13.006Zm-3.91-9.593-1.716,4.188h3.432Z" transform="translate(107.011 39.574)" fill="#fff"/>
    <path id="Path_340" data-name="Path 340" d="M355.185,138.089a6.463,6.463,0,0,1-6.79-6.64v-.038a6.629,6.629,0,0,1,6.769-6.679,7.1,7.1,0,0,1,5.076,1.771l-1.79,2.159a4.754,4.754,0,0,0-3.376-1.309,3.877,3.877,0,0,0-3.709,4.021v.037a3.869,3.869,0,0,0,3.909,4.1,4.531,4.531,0,0,0,2.676-.774v-1.845h-2.858v-2.454H360.7v5.608a8.369,8.369,0,0,1-5.514,2.048" transform="translate(110.445 39.543)" fill="#fff"/>
    <path id="Path_341" data-name="Path 341" d="M359.8,137.814V124.9h9.741v2.527h-6.918v2.62h6.089v2.527h-6.089v2.712h7.012v2.527Z" transform="translate(114.063 39.596)" fill="#fff"/>
    <path id="Path_342" data-name="Path 342" d="M379.275,137.814v-8.43L375.64,134.9h-.074l-3.6-5.46v8.375h-2.785V124.9h3.061l3.4,5.46,3.393-5.46H382.1v12.913Z" transform="translate(117.037 39.596)" fill="#fff"/>
    <path id="Path_343" data-name="Path 343" d="M381.337,137.814V124.9h9.739v2.527h-6.917v2.62h6.089v2.527h-6.089v2.712h7.009v2.527Z" transform="translate(120.889 39.596)" fill="#fff"/>
    <path id="Path_344" data-name="Path 344" d="M399.775,137.814l-6.256-8.209v8.209h-2.8V124.9h2.621l6.05,7.951V124.9h2.8v12.913Z" transform="translate(123.862 39.596)" fill="#fff"/>
    <path id="Path_345" data-name="Path 345" d="M407.845,127.52v10.294h-2.84V127.52h-3.931V124.9h10.7v2.62Z" transform="translate(127.146 39.596)" fill="#fff"/>
    <path id="Path_346" data-name="Path 346" d="M335.07,150.74h-2.159v3.875h-2.842V141.7h5.276c3.082,0,4.944,1.827,4.944,4.465v.037c0,2.988-2.323,4.538-5.219,4.538m2.343-4.52c0-1.272-.888-1.956-2.307-1.956h-2.194v3.948h2.251a2,2,0,0,0,2.251-1.956Z" transform="translate(104.637 44.922)" fill="#fff"/>
    <path id="Path_347" data-name="Path 347" d="M345.832,154.889a6.617,6.617,0,0,1-6.845-6.642v-.037a6.866,6.866,0,0,1,13.726-.037v.037a6.678,6.678,0,0,1-6.881,6.679m3.91-6.679a3.923,3.923,0,0,0-3.91-4.059,3.862,3.862,0,0,0-3.873,4.022v.037a3.923,3.923,0,0,0,3.91,4.059,3.863,3.863,0,0,0,3.873-4.022Z" transform="translate(107.464 44.868)" fill="#fff"/>
    <path id="Path_348" data-name="Path 348" d="M351.321,154.614V141.7h2.839v10.331H360.6v2.583Z" transform="translate(111.373 44.922)" fill="#fff"/>
    <rect id="Rectangle_579" data-name="Rectangle 579" width="2.839" height="12.913" transform="translate(474.237 186.621)" fill="#fff"/>
    <path id="Path_349" data-name="Path 349" d="M370.88,154.888a6.517,6.517,0,0,1-6.623-6.64v-.038a6.564,6.564,0,0,1,6.734-6.679,6.658,6.658,0,0,1,5.09,1.994l-1.808,2.084a4.767,4.767,0,0,0-3.3-1.457,3.824,3.824,0,0,0-3.742,4.021v.037a3.835,3.835,0,0,0,3.742,4.059,4.656,4.656,0,0,0,3.4-1.513l1.81,1.827a6.6,6.6,0,0,1-5.294,2.306" transform="translate(115.475 44.868)" fill="#fff"/>
    <path id="Path_350" data-name="Path 350" d="M381.678,149.467v5.147h-2.839v-5.092l-4.965-7.822H377.2l3.082,5.184,3.135-5.184h3.229Z" transform="translate(118.523 44.922)" fill="#fff"/>
    <path id="Path_351" data-name="Path 351" d="M416.513,237.251h-5.036V224.338h5.036c4.058,0,6.863,2.785,6.863,6.419v.037c0,3.635-2.805,6.457-6.863,6.457m3.892-6.457a3.709,3.709,0,0,0-3.892-3.893h-2.2v7.786h2.2a3.679,3.679,0,0,0,3.892-3.856Z" transform="translate(130.444 71.119)" fill="#fff"/>
    <path id="Path_352" data-name="Path 352" d="M431.6,237.274l-1.181-2.9h-5.46l-1.181,2.9h-2.9l5.534-13.006h2.62l5.535,13.006Zm-3.912-9.593-1.716,4.188h3.432Z" transform="translate(133.426 71.098)" fill="#fff"/>
    <path id="Path_353" data-name="Path 353" d="M437.594,226.957v10.294h-2.841V226.957h-3.93v-2.62h10.7v2.62Z" transform="translate(136.577 71.119)" fill="#fff"/>
    <path id="Path_354" data-name="Path 354" d="M449.215,237.274l-1.181-2.9h-5.46l-1.181,2.9h-2.9l5.534-13.006h2.62l5.535,13.006ZM445.3,227.68l-1.716,4.188h3.432Z" transform="translate(139.01 71.098)" fill="#fff"/>
    <path id="Path_355" data-name="Path 355" d="M383.415,254.075l-1.181-2.9h-5.46l-1.181,2.9h-2.9l5.534-13.007h2.62l5.535,13.007Zm-3.912-9.593-1.716,4.188h3.432Z" transform="translate(118.149 76.423)" fill="#fff"/>
    <path id="Path_356" data-name="Path 356" d="M392.437,254.053l-2.768-4.133h-2.231v4.133H384.6V241.138h5.9c3.045,0,4.872,1.605,4.872,4.262v.037a4.012,4.012,0,0,1-2.768,4l3.154,4.612Zm.055-8.505c0-1.217-.85-1.845-2.232-1.845h-2.822v3.709h2.878c1.383,0,2.177-.739,2.177-1.827Z" transform="translate(121.923 76.445)" fill="#fff"/>
    <path id="Path_357" data-name="Path 357" d="M400.907,254.326a6.518,6.518,0,0,1-6.623-6.64v-.038a6.563,6.563,0,0,1,6.734-6.677,6.661,6.661,0,0,1,5.092,1.993l-1.808,2.084a4.769,4.769,0,0,0-3.3-1.457,3.824,3.824,0,0,0-3.743,4.021v.037A3.835,3.835,0,0,0,401,251.706a4.659,4.659,0,0,0,3.4-1.513l1.808,1.827a6.6,6.6,0,0,1-5.294,2.306" transform="translate(124.993 76.392)" fill="#fff"/>
    <path id="Path_358" data-name="Path 358" d="M413.13,254.052v-5.184h-5.239v5.184H405.05V241.138h2.841v5.11h5.239v-5.11h2.841v12.913Z" transform="translate(128.406 76.445)" fill="#fff"/>
    <rect id="Rectangle_580" data-name="Rectangle 580" width="2.841" height="12.913" transform="translate(547.599 317.583)" fill="#fff"/>
    <path id="Path_359" data-name="Path 359" d="M426.464,243.758v10.294h-2.841V243.758h-3.93v-2.62h10.7v2.62Z" transform="translate(133.049 76.445)" fill="#fff"/>
    <path id="Path_360" data-name="Path 360" d="M429.467,254.052V241.138h9.741v2.527h-6.918v2.62h6.089v2.527h-6.089v2.712h7.01v2.527Z" transform="translate(136.146 76.445)" fill="#fff"/>
    <path id="Path_361" data-name="Path 361" d="M445.035,254.326a6.518,6.518,0,0,1-6.623-6.64v-.038a6.563,6.563,0,0,1,6.734-6.677,6.661,6.661,0,0,1,5.092,1.993l-1.808,2.084a4.769,4.769,0,0,0-3.3-1.457,3.824,3.824,0,0,0-3.743,4.021v.037a3.835,3.835,0,0,0,3.743,4.059,4.659,4.659,0,0,0,3.4-1.513l1.808,1.827a6.6,6.6,0,0,1-5.294,2.306" transform="translate(138.982 76.392)" fill="#fff"/>
    <path id="Path_362" data-name="Path 362" d="M455.249,243.758v10.294h-2.841V243.758h-3.93v-2.62h10.7v2.62Z" transform="translate(142.174 76.445)" fill="#fff"/>
    <path id="Path_363" data-name="Path 363" d="M463.686,254.255c-3.468,0-5.589-1.937-5.589-5.737v-7.379h2.841v7.3c0,2.1,1.052,3.192,2.785,3.192s2.787-1.052,2.787-3.1v-7.4h2.841v7.286c0,3.912-2.2,5.83-5.664,5.83" transform="translate(145.223 76.445)" fill="#fff"/>
    <path id="Path_364" data-name="Path 364" d="M476.675,254.053l-2.768-4.133h-2.231v4.133h-2.841V241.138h5.9c3.045,0,4.872,1.605,4.872,4.262v.037a4.012,4.012,0,0,1-2.768,4L480,254.053Zm.055-8.505c0-1.217-.849-1.845-2.232-1.845h-2.822v3.709h2.878c1.383,0,2.177-.739,2.177-1.827Z" transform="translate(148.627 76.445)" fill="#fff"/>
    <path id="Path_365" data-name="Path 365" d="M478.957,254.052V241.138H488.7v2.527h-6.918v2.62h6.089v2.527h-6.089v2.712h7.01v2.527Z" transform="translate(151.836 76.445)" fill="#fff"/>
    <path id="Path_366" data-name="Path 366" d="M381.374,355.355v-8.43l-3.635,5.514h-.072l-3.6-5.459v8.375h-2.785V342.44h3.062l3.394,5.462,3.394-5.462H384.2v12.915Z" transform="translate(117.702 108.56)" fill="#fff"/>
    <path id="Path_367" data-name="Path 367" d="M383.435,355.355V342.44h9.741v2.527h-6.918v2.621h6.089v2.526h-6.089v2.713h7.01v2.527Z" transform="translate(121.555 108.56)" fill="#fff"/>
    <path id="Path_368" data-name="Path 368" d="M398.885,345.06v10.294h-2.841V345.06h-3.93v-2.62h10.7v2.62Z" transform="translate(124.306 108.56)" fill="#fff"/>
    <path id="Path_369" data-name="Path 369" d="M410.506,355.377l-1.181-2.9h-5.46l-1.181,2.9h-2.9l5.534-13.007h2.619l5.535,13.007Zm-3.912-9.593-1.716,4.188h3.432Z" transform="translate(126.738 108.537)" fill="#fff"/>
    <path id="Path_370" data-name="Path 370" d="M416.724,355.354h-5.036V342.441h5.036c4.058,0,6.863,2.785,6.863,6.42v.036c0,3.635-2.805,6.457-6.863,6.457m3.892-6.457a3.708,3.708,0,0,0-3.892-3.892h-2.2v7.785h2.2a3.679,3.679,0,0,0,3.892-3.856Z" transform="translate(130.511 108.56)" fill="#fff"/>
    <path id="Path_371" data-name="Path 371" d="M431.813,355.377l-1.181-2.9h-5.46l-1.181,2.9h-2.9l5.534-13.007h2.62l5.535,13.007Zm-3.912-9.593-1.716,4.188h3.432Z" transform="translate(133.493 108.537)" fill="#fff"/>
    <path id="Path_372" data-name="Path 372" d="M437.805,345.06v10.294h-2.841V345.06h-3.93v-2.62h10.7v2.62Z" transform="translate(136.645 108.56)" fill="#fff"/>
    <path id="Path_373" data-name="Path 373" d="M449.426,355.377l-1.181-2.9h-5.46l-1.181,2.9h-2.9l5.534-13.007h2.62l5.535,13.007Zm-3.912-9.593-1.716,4.188h3.432Z" transform="translate(139.076 108.537)" fill="#fff"/>
    <path id="Path_374" data-name="Path 374" d="M367.676,372.154v-8.43l-3.635,5.516h-.072l-3.6-5.46v8.375h-2.785V359.241h3.062l3.394,5.46,3.394-5.46H370.5v12.913Z" transform="translate(113.359 113.885)" fill="#fff"/>
    <path id="Path_375" data-name="Path 375" d="M379.615,372.177l-1.181-2.9h-5.46l-1.181,2.9h-2.9l5.534-13.005h2.62l5.535,13.005Zm-3.912-9.592-1.716,4.188h3.432Z" transform="translate(116.945 113.863)" fill="#fff"/>
    <path id="Path_376" data-name="Path 376" d="M389.855,372.154l-6.255-8.209v8.209h-2.8V359.241h2.62l6.05,7.951v-7.951h2.805v12.913Z" transform="translate(120.718 113.885)" fill="#fff"/>
    <path id="Path_377" data-name="Path 377" d="M401.734,372.177l-1.181-2.9h-5.46l-1.181,2.9h-2.9l5.534-13.005h2.62l5.535,13.005Zm-3.912-9.592-1.716,4.188h3.432Z" transform="translate(123.957 113.863)" fill="#fff"/>
    <path id="Path_378" data-name="Path 378" d="M408.641,372.429a6.463,6.463,0,0,1-6.789-6.64v-.037a6.629,6.629,0,0,1,6.769-6.679,7.089,7.089,0,0,1,5.074,1.771L411.906,363a4.751,4.751,0,0,0-3.375-1.31,3.877,3.877,0,0,0-3.707,4.021v.038a3.867,3.867,0,0,0,3.909,4.095,4.536,4.536,0,0,0,2.676-.774v-1.845h-2.859v-2.452h5.608v5.607a8.376,8.376,0,0,1-5.516,2.048" transform="translate(127.393 113.832)" fill="#fff"/>
    <path id="Path_379" data-name="Path 379" d="M413.262,372.154V359.241H423v2.527h-6.918v2.621h6.089v2.526h-6.089v2.712h7.01v2.527Z" transform="translate(131.01 113.885)" fill="#fff"/>
    <path id="Path_380" data-name="Path 380" d="M432.732,372.154v-8.43L429.1,369.24h-.072l-3.6-5.46v8.375h-2.785V359.241H425.7l3.394,5.46,3.394-5.46h3.065v12.913Z" transform="translate(133.983 113.885)" fill="#fff"/>
    <path id="Path_381" data-name="Path 381" d="M434.794,372.154V359.241h9.741v2.527h-6.918v2.621H443.7v2.526h-6.089v2.712h7.01v2.527Z" transform="translate(137.836 113.885)" fill="#fff"/>
    <path id="Path_382" data-name="Path 382" d="M453.232,372.154l-6.255-8.209v8.209h-2.8V359.241h2.62l6.05,7.951v-7.951h2.805v12.913Z" transform="translate(140.81 113.885)" fill="#fff"/>
    <path id="Path_383" data-name="Path 383" d="M461.3,361.86v10.294h-2.841V361.86h-3.93v-2.618h10.7v2.618Z" transform="translate(144.094 113.887)" fill="#fff"/>
    <path id="Path_384" data-name="Path 384" d="M269.578,411.252h-5.036V398.34h5.036c4.058,0,6.863,2.785,6.863,6.419v.037c0,3.635-2.805,6.456-6.863,6.456m3.892-6.456a3.709,3.709,0,0,0-3.892-3.893h-2.2v7.785h2.2a3.678,3.678,0,0,0,3.892-3.855Z" transform="translate(83.863 126.281)" fill="#fff"/>
    <path id="Path_385" data-name="Path 385" d="M284.667,411.275l-1.181-2.9h-5.46l-1.181,2.9h-2.9l5.534-13.006h2.62l5.534,13.006Zm-3.912-9.592-1.716,4.188h3.432Z" transform="translate(86.846 126.258)" fill="#fff"/>
    <path id="Path_386" data-name="Path 386" d="M290.659,400.958v10.294h-2.841V400.958h-3.93V398.34h10.7v2.618Z" transform="translate(89.996 126.281)" fill="#fff"/>
    <path id="Path_387" data-name="Path 387" d="M302.279,411.275l-1.181-2.9h-5.46l-1.181,2.9h-2.9l5.534-13.006h2.62l5.535,13.006Zm-3.912-9.592-1.716,4.188h3.432Z" transform="translate(92.429 126.258)" fill="#fff"/>
    <path id="Path_388" data-name="Path 388" d="M262.839,428.494l-1.421-1.274a7.025,7.025,0,0,1-3.836,1.108,6.616,6.616,0,0,1-6.845-6.642v-.037a6.866,6.866,0,0,1,13.726-.036v.036a6.539,6.539,0,0,1-1.143,3.709l1.328,1.126Zm-1.346-6.845a3.923,3.923,0,0,0-3.912-4.058,3.862,3.862,0,0,0-3.873,4.022v.036a3.922,3.922,0,0,0,3.91,4.059,4.165,4.165,0,0,0,1.7-.35l-2.1-1.79,1.808-2.03,2.12,1.919a4.256,4.256,0,0,0,.352-1.771Z" transform="translate(79.487 131.553)" fill="#fff"/>
    <path id="Path_389" data-name="Path 389" d="M268.505,428.258c-3.468,0-5.589-1.939-5.589-5.737V415.14h2.841v7.306c0,2.1,1.052,3.192,2.785,3.192s2.787-1.052,2.787-3.1v-7.4h2.841v7.287c0,3.912-2.2,5.83-5.664,5.83" transform="translate(83.348 131.606)" fill="#fff"/>
    <path id="Path_390" data-name="Path 390" d="M283.183,428.076,282,425.18h-5.46l-1.181,2.9h-2.9L278,415.069h2.62l5.535,13.007Zm-3.912-9.593-1.716,4.188h3.432Z" transform="translate(86.375 131.584)" fill="#fff"/>
    <path id="Path_391" data-name="Path 391" d="M284.364,428.054V415.139H287.2v10.332h6.439v2.583Z" transform="translate(90.147 131.605)" fill="#fff"/>
    <rect id="Rectangle_581" data-name="Rectangle 581" width="2.841" height="12.915" transform="translate(386.053 546.746)" fill="#fff"/>
    <path id="Path_392" data-name="Path 392" d="M303.8,417.759v10.294h-2.841V417.759h-3.93v-2.62h10.7v2.62Z" transform="translate(94.164 131.606)" fill="#fff"/>
    <path id="Path_393" data-name="Path 393" d="M313.6,422.907v5.147h-2.841v-5.092L305.8,415.14h3.322l3.08,5.184,3.136-5.184h3.229Z" transform="translate(96.941 131.606)" fill="#fff"/>
    <path id="Path_394" data-name="Path 394" d="M142.947,355.353h-5.036V342.441h5.036c4.058,0,6.863,2.785,6.863,6.419v.037c0,3.635-2.805,6.456-6.863,6.456m3.892-6.456A3.709,3.709,0,0,0,142.947,345h-2.2v7.785h2.2a3.678,3.678,0,0,0,3.892-3.855Z" transform="translate(43.719 108.56)" fill="#fff"/>
    <path id="Path_395" data-name="Path 395" d="M158.037,355.376l-1.181-2.9H151.4l-1.181,2.9h-2.9l5.534-13.006h2.62l5.535,13.006Zm-3.912-9.592-1.716,4.188h3.432Z" transform="translate(46.701 108.537)" fill="#fff"/>
    <path id="Path_396" data-name="Path 396" d="M164.029,345.059v10.294h-2.841V345.059h-3.93v-2.618h10.7v2.618Z" transform="translate(49.854 108.561)" fill="#fff"/>
    <path id="Path_397" data-name="Path 397" d="M175.649,355.376l-1.181-2.9h-5.46l-1.181,2.9h-2.9l5.534-13.006h2.62l5.535,13.006Zm-3.912-9.592-1.716,4.188h3.432Z" transform="translate(52.285 108.537)" fill="#fff"/>
    <path id="Path_398" data-name="Path 398" d="M125.074,372.155V359.24h2.841v10.332h6.439v2.583Z" transform="translate(39.65 113.885)" fill="#fff"/>
    <rect id="Rectangle_582" data-name="Rectangle 582" width="2.841" height="12.915" transform="translate(176.266 473.125)" fill="#fff"/>
    <path id="Path_399" data-name="Path 399" d="M147.5,372.155l-6.255-8.209v8.209h-2.8V359.24h2.62l6.05,7.951V359.24h2.805v12.915Z" transform="translate(43.889 113.885)" fill="#fff"/>
    <path id="Path_400" data-name="Path 400" d="M149.5,372.155V359.24h9.741v2.527h-6.918v2.621h6.089v2.526h-6.089v2.713h7.01v2.527Z" transform="translate(47.395 113.885)" fill="#fff"/>
    <path id="Path_401" data-name="Path 401" d="M168.762,372.177l-1.181-2.9h-5.46l-1.181,2.9h-2.9l5.534-13.007h2.62l5.535,13.007Zm-3.912-9.593-1.716,4.188h3.432Z" transform="translate(50.102 113.863)" fill="#fff"/>
    <path id="Path_402" data-name="Path 402" d="M175.668,372.429a6.464,6.464,0,0,1-6.789-6.642v-.037a6.628,6.628,0,0,1,6.769-6.679,7.1,7.1,0,0,1,5.074,1.771L178.933,363a4.754,4.754,0,0,0-3.376-1.309,3.877,3.877,0,0,0-3.707,4.021v.037a3.869,3.869,0,0,0,3.909,4.1,4.528,4.528,0,0,0,2.676-.776v-1.844h-2.859v-2.454h5.607v5.608a8.369,8.369,0,0,1-5.514,2.048" transform="translate(53.537 113.832)" fill="#fff"/>
    <path id="Path_403" data-name="Path 403" d="M180.289,372.155V359.24h9.741v2.527h-6.918v2.621H189.2v2.526h-6.089v2.713h7.01v2.527Z" transform="translate(57.154 113.885)" fill="#fff"/>
    <path id="Path_404" data-name="Path 404" d="M114.619,237.251h-5.036V224.338h5.036c4.058,0,6.863,2.785,6.863,6.419v.037c0,3.635-2.805,6.457-6.863,6.457m3.892-6.457a3.709,3.709,0,0,0-3.892-3.893h-2.2v7.786h2.2a3.679,3.679,0,0,0,3.892-3.856Z" transform="translate(34.739 71.119)" fill="#fff"/>
    <path id="Path_405" data-name="Path 405" d="M129.709,237.274l-1.181-2.9h-5.46l-1.181,2.9h-2.9l5.534-13.007h2.62l5.535,13.007Zm-3.912-9.593-1.716,4.188h3.432Z" transform="translate(37.721 71.097)" fill="#fff"/>
    <path id="Path_406" data-name="Path 406" d="M135.7,226.957v10.294H132.86V226.957h-3.93v-2.62h10.7v2.62Z" transform="translate(40.872 71.119)" fill="#fff"/>
    <path id="Path_407" data-name="Path 407" d="M147.321,237.274l-1.181-2.9h-5.46l-1.181,2.9h-2.9l5.534-13.007h2.62l5.535,13.007Zm-3.912-9.593-1.716,4.188h3.432Z" transform="translate(43.305 71.097)" fill="#fff"/>
    <path id="Path_408" data-name="Path 408" d="M94.913,254.074l-1.181-2.9h-5.46l-1.181,2.9h-2.9l5.534-13.006h2.62l5.535,13.006ZM91,244.48l-1.716,4.188h3.432Z" transform="translate(26.69 76.423)" fill="#fff"/>
    <path id="Path_409" data-name="Path 409" d="M107.132,254.492l-1.421-1.274a7.025,7.025,0,0,1-3.836,1.108,6.617,6.617,0,0,1-6.845-6.642v-.037a6.866,6.866,0,0,1,13.726-.037v.037a6.542,6.542,0,0,1-1.143,3.709l1.328,1.125Zm-1.346-6.845a3.924,3.924,0,0,0-3.912-4.059A3.862,3.862,0,0,0,98,247.611v.037a3.923,3.923,0,0,0,3.91,4.059,4.166,4.166,0,0,0,1.7-.35l-2.1-1.79,1.808-2.03,2.12,1.919a4.256,4.256,0,0,0,.352-1.771Z" transform="translate(30.125 76.392)" fill="#fff"/>
    <path id="Path_410" data-name="Path 410" d="M112.8,254.254c-3.468,0-5.589-1.937-5.589-5.737v-7.379h2.841v7.3c0,2.1,1.052,3.192,2.785,3.192s2.787-1.052,2.787-3.1v-7.4h2.841v7.286c0,3.912-2.2,5.83-5.664,5.83" transform="translate(33.986 76.445)" fill="#fff"/>
    <rect id="Rectangle_583" data-name="Rectangle 583" width="2.841" height="12.913" transform="translate(155.468 317.583)" fill="#fff"/>
    <path id="Path_411" data-name="Path 411" d="M127.458,254.28a8.224,8.224,0,0,1-5.479-2.066l1.679-2.011a5.919,5.919,0,0,0,3.856,1.569c1.162,0,1.862-.461,1.862-1.218v-.036c0-.72-.443-1.089-2.6-1.642-2.6-.664-4.28-1.384-4.28-3.948v-.037c0-2.343,1.882-3.892,4.52-3.892a7.482,7.482,0,0,1,4.8,1.641l-1.476,2.14a6.066,6.066,0,0,0-3.357-1.274c-1.089,0-1.661.5-1.661,1.126v.037c0,.848.553,1.126,2.784,1.7,2.62.682,4.1,1.623,4.1,3.873v.037c0,2.564-1.957,4-4.743,4" transform="translate(38.668 76.4)" fill="#fff"/>
    <rect id="Rectangle_584" data-name="Rectangle 584" width="2.841" height="12.913" transform="translate(173.464 317.583)" fill="#fff"/>
    <path id="Path_412" data-name="Path 412" d="M142.386,243.757v10.294h-2.841V243.757h-3.93v-2.62h10.7v2.62Z" transform="translate(42.992 76.445)" fill="#fff"/>
    <rect id="Rectangle_585" data-name="Rectangle 585" width="2.841" height="12.913" transform="translate(191.607 317.583)" fill="#fff"/>
    <path id="Path_413" data-name="Path 413" d="M156.5,254.326a6.616,6.616,0,0,1-6.845-6.642v-.037a6.866,6.866,0,0,1,13.726-.037v.037a6.678,6.678,0,0,1-6.881,6.679m3.912-6.679a3.924,3.924,0,0,0-3.912-4.059,3.862,3.862,0,0,0-3.873,4.022v.037a3.923,3.923,0,0,0,3.91,4.059,3.863,3.863,0,0,0,3.875-4.022Z" transform="translate(47.443 76.392)" fill="#fff"/>
    <path id="Path_414" data-name="Path 414" d="M171.05,254.051l-6.255-8.209v8.209h-2.8V241.138h2.62l6.05,7.951v-7.951h2.805v12.913Z" transform="translate(51.354 76.445)" fill="#fff"/>
    <path id="Path_415" data-name="Path 415" d="M555.512,245.56H517.683a6.109,6.109,0,0,1-6.1-6.1V192.929a6.11,6.11,0,0,1,6.1-6.1h37.829a6.11,6.11,0,0,1,6.1,6.1v46.529a6.109,6.109,0,0,1-6.1,6.1m-37.829-57.417a4.791,4.791,0,0,0-4.786,4.786v46.529a4.791,4.791,0,0,0,4.786,4.785h37.829a4.79,4.79,0,0,0,4.785-4.785V192.929a4.79,4.79,0,0,0-4.785-4.786Z" transform="translate(162.178 59.228)" fill="#fff"/>
    <rect id="Rectangle_586" data-name="Rectangle 586" width="37.697" height="1.317" transform="translate(679.926 274.762)" fill="#fff"/>
    <rect id="Rectangle_587" data-name="Rectangle 587" width="37.697" height="1.317" transform="translate(679.926 269.542)" fill="#fff"/>
    <rect id="Rectangle_588" data-name="Rectangle 588" width="37.697" height="1.317" transform="translate(679.926 264.321)" fill="#fff"/>
    <rect id="Rectangle_589" data-name="Rectangle 589" width="37.697" height="1.317" transform="translate(679.926 259.103)" fill="#fff"/>
    <rect id="Rectangle_590" data-name="Rectangle 590" width="37.697" height="1.317" transform="translate(679.926 253.883)" fill="#fff"/>
    <rect id="Rectangle_591" data-name="Rectangle 591" width="37.697" height="1.317" transform="translate(679.926 279.98)" fill="#fff"/>
    <rect id="Rectangle_592" data-name="Rectangle 592" width="37.697" height="1.317" transform="translate(679.926 285.202)" fill="#fff"/>
    <rect id="Rectangle_593" data-name="Rectangle 593" width="21.458" height="1.317" transform="translate(679.926 290.421)" fill="#fff"/>
    <rect id="Rectangle_594" data-name="Rectangle 594" width="21.458" height="1.317" transform="translate(679.926 295.641)" fill="#fff"/>
    <path id="Path_416" data-name="Path 416" d="M509.707,399.079H471.883a6.1,6.1,0,0,0-6.1,6.111v46.517a6.1,6.1,0,0,0,6.1,6.111h37.825a6.115,6.115,0,0,0,6.111-6.111V405.19a6.115,6.115,0,0,0-6.111-6.111m4.794,52.628a4.794,4.794,0,0,1-4.794,4.794H471.883a4.783,4.783,0,0,1-4.781-4.794V405.19a4.783,4.783,0,0,1,4.781-4.794h37.825a4.794,4.794,0,0,1,4.794,4.794Z" transform="translate(147.66 126.515)" fill="#fff"/>
    <rect id="Rectangle_595" data-name="Rectangle 595" width="37.698" height="1.317" transform="translate(619.606 532.268)" fill="#fff"/>
    <rect id="Rectangle_596" data-name="Rectangle 596" width="37.698" height="1.317" transform="translate(619.606 537.485)" fill="#fff"/>
    <rect id="Rectangle_597" data-name="Rectangle 597" width="37.698" height="1.317" transform="translate(619.606 542.704)" fill="#fff"/>
    <rect id="Rectangle_598" data-name="Rectangle 598" width="21.459" height="1.317" transform="translate(619.606 547.925)" fill="#fff"/>
    <rect id="Rectangle_599" data-name="Rectangle 599" width="21.459" height="1.317" transform="translate(619.606 553.145)" fill="#fff"/>
    <path id="Path_417" data-name="Path 417" d="M502.715,415.829l-26.1,26.1-1.106,6.835,6.835-1.106,26.1-26.1Zm-21.006,30.607-4.61.738.751-4.61,22.034-22.034,3.872,3.872Z" transform="translate(150.742 131.824)" fill="#fff"/>
    <path id="Path_418" data-name="Path 418" d="M379.008,57.909l-.013.013c.171.171.342.342.527.5q-.257-.237-.514-.514m41.3,0a1.312,1.312,0,0,1-.132.145,1.442,1.442,0,0,0,.145-.132Z" transform="translate(120.146 18.359)" fill="#fff"/>
    <path id="Path_419" data-name="Path 419" d="M389.334,20.938c-.3.079-.606.158-.909.25.356-.105.724-.2,1.093-.29a.76.76,0,0,0-.184.04m4.438-.777a1.278,1.278,0,0,1,.224-.013h.013c0-.013,0-.013.013-.013-.079.013-.171.013-.25.026m5.6-.026h-.013c-.329-.026-.659-.053-1-.066.342.013.672.04,1.014.079a1.432,1.432,0,0,1,.237.013c-.079-.013-.158-.013-.237-.026M409.55,22.98c-.053-.026-.119-.053-.184-.079l.474.237c-.105-.053-.2-.105-.29-.158" transform="translate(123.137 6.363)" fill="#fff"/>
    <path id="Path_420" data-name="Path 420" d="M397.189,66.338a1.457,1.457,0,0,0,.25.026v-.013a1.511,1.511,0,0,1-.25-.013m-11.708-3.767c.145.092.3.184.461.277a2.794,2.794,0,0,0,.277.145c-.25-.132-.5-.277-.738-.421m11.708,3.767a1.457,1.457,0,0,0,.25.026v-.013a1.511,1.511,0,0,1-.25-.013m-11.708-3.767c.145.092.3.184.461.277a2.794,2.794,0,0,0,.277.145c-.25-.132-.5-.277-.738-.421m11.708,3.767a1.457,1.457,0,0,0,.25.026v-.013a1.511,1.511,0,0,1-.25-.013m-11.708-3.767c.145.092.3.184.461.277a2.794,2.794,0,0,0,.277.145c-.25-.132-.5-.277-.738-.421m11.708,3.767a1.457,1.457,0,0,0,.25.026v-.013a1.511,1.511,0,0,1-.25-.013m-11.708-3.767c.145.092.3.184.461.277a2.794,2.794,0,0,0,.277.145c-.25-.132-.5-.277-.738-.421m-7.863-4.662-.013.013.435.461c-.145-.158-.29-.316-.421-.474m7.863,4.662c.145.092.3.184.461.277a2.794,2.794,0,0,0,.277.145c-.25-.132-.5-.277-.738-.421m19.084,3.569v.013c.026,0,.04-.013.066-.013Zm-7.375.2a1.457,1.457,0,0,0,.25.026v-.013a1.511,1.511,0,0,1-.25-.013m-11.708-3.767c.145.092.3.184.461.277a2.794,2.794,0,0,0,.277.145c-.25-.132-.5-.277-.738-.421m11.708,3.767a1.457,1.457,0,0,0,.25.026v-.013a1.511,1.511,0,0,1-.25-.013m-11.708-3.767c.145.092.3.184.461.277a2.794,2.794,0,0,0,.277.145c-.25-.132-.5-.277-.738-.421m11.708,3.767a1.457,1.457,0,0,0,.25.026v-.013a1.511,1.511,0,0,1-.25-.013m-11.708-3.767c.145.092.3.184.461.277a2.794,2.794,0,0,0,.277.145c-.25-.132-.5-.277-.738-.421m11.708,3.767a1.457,1.457,0,0,0,.25.026v-.013a1.511,1.511,0,0,1-.25-.013m-11.708-3.767c.145.092.3.184.461.277a2.794,2.794,0,0,0,.277.145c-.25-.132-.5-.277-.738-.421m11.708,3.767a1.457,1.457,0,0,0,.25.026v-.013a1.511,1.511,0,0,1-.25-.013" transform="translate(119.706 18.359)" fill="#fff"/>
    <path id="Path_421" data-name="Path 421" d="M424.5,28.907c-.132-.158-.277-.316-.421-.461a30.148,30.148,0,0,0-21.388-9.4c-.211-.013-.435-.013-.645-.013l-.658.013a30.636,30.636,0,0,0-21.4,9.4l-.435.474a30.5,30.5,0,0,0,0,41.315c.132.158.277.316.421.474.369.382.738.751,1.119,1.106l.026.026c.342.316.685.632,1.04.935l.277.237c.329.277.672.553,1.014.817s.7.527,1.054.764c.263.2.527.382.8.553s.553.356.83.527q.573.356,1.146.672c.356.2.711.4,1.08.566l.079.04a.806.806,0,0,0,.184.092c.026.026.053.026.066.04.435.211.882.408,1.33.606s.882.369,1.343.54a3.02,3.02,0,0,0,.369.119.551.551,0,0,1,.132.053c.3.119.619.224.935.316.092.026.171.053.263.079.408.132.83.25,1.251.356l.158.04c.435.119.869.211,1.317.3.369.079.737.145,1.119.2.448.079.9.145,1.357.2.053.013.119.013.171.026.369.04.724.079,1.093.092.184.026.356.04.54.053h.118q.514.04,1.027.04a.87.87,0,0,0,.184.013c.211.013.435.013.645.013h.013c.211,0,.435,0,.645-.013a.752.752,0,0,0,.171-.013c.356,0,.7-.013,1.04-.04h.119q.277-.02.514-.04c.369-.026.738-.066,1.106-.105.053-.013.118-.013.171-.026.448-.053.909-.119,1.357-.2l.237-.04a.079.079,0,0,0,.053-.013,4.225,4.225,0,0,0,.566-.092c.026-.013.066-.013.092-.026l.211-.04c.408-.079.817-.171,1.212-.277.013,0,.026-.013.04-.013.066-.013.119-.026.171-.04.356-.092.7-.184,1.04-.3a.245.245,0,0,0,.092-.026c.171-.053.356-.105.527-.158.408-.119.8-.263,1.2-.408.487-.171.948-.369,1.422-.566.448-.2.9-.4,1.33-.606a.176.176,0,0,0,.066-.04.805.805,0,0,0,.184-.092l.079-.04c.369-.171.724-.369,1.08-.566q.573-.316,1.146-.672c.277-.171.553-.342.83-.527s.54-.356.8-.553c.356-.237.711-.5,1.054-.764s.685-.54,1.014-.817l.277-.237c.356-.3.7-.619,1.04-.935l.026-.026c.382-.356.751-.724,1.119-1.106.145-.145.29-.3.421-.461a30.517,30.517,0,0,0-.013-41.341m-43.106,0c.145-.171.316-.316.474-.474a.691.691,0,0,1,.145-.132,4.537,4.537,0,0,1,.369-.342.849.849,0,0,1,.118-.105,1.7,1.7,0,0,1,.224-.211l.369-.329c.013-.013.013-.013.026-.013a2.759,2.759,0,0,1,.224-.184.694.694,0,0,1,.184-.158,2.547,2.547,0,0,1,.369-.29,3.735,3.735,0,0,1,.369-.3,1.1,1.1,0,0,1,.211-.158,3.556,3.556,0,0,1,.474-.342c.026-.04.039-.053.066-.053a8.232,8.232,0,0,1,.817-.566,12.559,12.559,0,0,1,1.172-.751,6.662,6.662,0,0,1,.579-.342,2.283,2.283,0,0,1,.342-.2c.119-.066.224-.132.342-.184.329-.171.645-.342.988-.514a6.583,6.583,0,0,1,.632-.277c.29-.145.579-.277.882-.4.013-.026.039-.026.066-.026.435-.2.869-.356,1.317-.514.54-.2,1.08-.369,1.633-.527.3-.092.606-.171.909-.25a.76.76,0,0,1,.184-.04c.408-.119.83-.211,1.251-.29a.56.56,0,0,1,.145-.026c.4-.079.79-.158,1.185-.211q.771-.119,1.541-.2a.448.448,0,0,1,.132-.013c.079-.013.171-.013.25-.026-.013,0-.013,0-.013.013h-.013a34.28,34.28,0,0,0-12.117,12.959A28.1,28.1,0,0,1,381.4,28.92Zm-.909.948a29.1,29.1,0,0,0,6.15,4.754,33.616,33.616,0,0,0-3.437,14.3H372.825a28.848,28.848,0,0,1,7.665-19.057m-.013,39.431a28.992,28.992,0,0,1-7.652-19.057H383.2a33.464,33.464,0,0,0,3.424,14.3,30.717,30.717,0,0,0-6.15,4.754m18.9,9.4a1.456,1.456,0,0,1-.25-.026c-.487-.04-.961-.105-1.436-.171-.04,0-.079-.013-.119-.013-.2-.026-.4-.066-.593-.105-.237-.04-.474-.079-.7-.132-.474-.079-.935-.2-1.4-.316a10.269,10.269,0,0,1-1.093-.29,1.094,1.094,0,0,1-.277-.079,1.439,1.439,0,0,1-.224-.066c-.211-.066-.421-.132-.632-.211-.25-.079-.5-.171-.751-.263a7.081,7.081,0,0,1-.672-.263,2.473,2.473,0,0,1-.4-.158c-.026,0-.04-.013-.066-.026a1.6,1.6,0,0,1-.224-.092c-.316-.132-.632-.263-.935-.421a.4.4,0,0,1-.105-.053c-.316-.145-.632-.29-.935-.461a4.272,4.272,0,0,1-.421-.224,2.789,2.789,0,0,1-.277-.145c-.158-.092-.316-.184-.461-.277-.026-.013-.053-.039-.079-.053a1.981,1.981,0,0,1-.224-.132c-.026,0-.053-.026-.079-.04a.046.046,0,0,1-.026-.013,8.027,8.027,0,0,1-.79-.5,1.135,1.135,0,0,1-.211-.132,1.885,1.885,0,0,1-.316-.211,1.678,1.678,0,0,1-.25-.171l-.277-.2a2.667,2.667,0,0,1-.237-.171l-.435-.316a2.886,2.886,0,0,1-.237-.184.924.924,0,0,1-.132-.105,1.64,1.64,0,0,1-.25-.2c-.158-.132-.316-.25-.474-.382-.04-.026-.079-.066-.119-.092a1.439,1.439,0,0,1-.145-.132l-.026-.026-.277-.237c-.013-.013-.026-.026-.04-.026-.237-.211-.461-.421-.685-.632-.066-.066-.145-.132-.211-.2-.184-.158-.356-.329-.527-.5l.013-.013a28.1,28.1,0,0,1,5.848-4.517,34.464,34.464,0,0,0,12.143,12.959Zm2.015-.329a33.329,33.329,0,0,1-13.012-13.289,29.059,29.059,0,0,1,13.012-3.385Zm0-17.99a30.412,30.412,0,0,0-13.618,3.516,32.135,32.135,0,0,1-3.253-13.657h16.871Zm0-11.458H384.52a32.393,32.393,0,0,1,3.266-13.657,30.358,30.358,0,0,0,13.6,3.516Zm0-11.458a28.736,28.736,0,0,1-12.986-3.385,32.861,32.861,0,0,1,12.986-13.262Zm29.857,11.458H420.87a33.8,33.8,0,0,0-3.424-14.3,28.369,28.369,0,0,0,6.137-4.754,28.86,28.86,0,0,1,7.665,19.057M404.723,20.465h.013c.079.013.158.013.237.026.263.026.527.053.79.092l.632.079c.026,0,.053.013.092.013a.906.906,0,0,1,.171.026c.382.053.764.132,1.146.211a.65.65,0,0,1,.2.04,9.831,9.831,0,0,1,1.2.277,11.168,11.168,0,0,1,1.093.29l.277.079a1.438,1.438,0,0,1,.224.066c.211.066.421.132.632.211.25.079.5.171.751.263.026.013.053.013.079.026a1.111,1.111,0,0,1,.184.079,3.294,3.294,0,0,1,.5.2.472.472,0,0,1,.145.053,5088418799874.777,5088418799874.777,0,0,0,.316.132.467.467,0,0,1,.119.053q.435.178.869.4a9448078329008.064,9448078329008.064,0,0,0,.342.158c.066.026.132.053.184.079.092.053.184.105.29.158s.2.105.29.158a1.207,1.207,0,0,1,.184.092,5.054,5.054,0,0,1,.461.237,4.988,4.988,0,0,1,.448.263,5.6,5.6,0,0,1,.606.356c.356.211.7.435,1.04.672a6.876,6.876,0,0,1,.711.5.5.5,0,0,1,.171.119c.158.105.316.224.474.342a2.531,2.531,0,0,1,.224.171c.092.066.171.132.263.211a21.731,21.731,0,0,1,1.7,1.462c.224.184.435.4.645.606a2.249,2.249,0,0,1,.25.25,27.32,27.32,0,0,1-5.834,4.531,34.464,34.464,0,0,0-12.1-12.959c-.342-.04-.672-.066-1.014-.079.342.013.672.04,1,.066m-2.015.342a33.2,33.2,0,0,1,12.986,13.262,29,29,0,0,1-12.986,3.385Zm0,17.964A30.347,30.347,0,0,0,416.3,35.255a32.578,32.578,0,0,1,3.253,13.657H402.708Zm0,11.458h16.845A32.045,32.045,0,0,1,416.3,63.887a30.347,30.347,0,0,0-13.592-3.516Zm0,28.118V61.687a29,29,0,0,1,12.986,3.385,32.98,32.98,0,0,1-12.986,13.276m19.847-7.968a1.2,1.2,0,0,1-.132.119l-.25.25c-.079.066-.145.145-.224.211a8.517,8.517,0,0,1-.738.659,3.83,3.83,0,0,1-.356.316c-.224.2-.448.382-.685.553a1.07,1.07,0,0,1-.132.119c-.013,0-.013,0-.026.013s-.04.04-.066.053a2.9,2.9,0,0,1-.237.184c-.237.184-.474.369-.724.527-.5.369-1.014.711-1.528,1.04-.013.013-.04.026-.053.04l-.079.04c-.013,0-.026.013-.04.013s-.026.013-.04.026a.275.275,0,0,1-.079.053l-.013.013c-.013.013-.026.013-.04.026-.356.211-.711.421-1.067.606-.263.158-.54.3-.817.435s-.593.3-.9.435c-.013.013-.04.013-.053.026-.29.132-.566.277-.856.382a3.824,3.824,0,0,1-.54.211c-.237.105-.474.2-.724.29-.145.053-.3.105-.461.158a2.716,2.716,0,0,1-.461.158c-.145.053-.3.105-.461.158-.211.066-.435.132-.659.184a7.162,7.162,0,0,1-.711.2.987.987,0,0,1-.211.053c-.2.053-.408.105-.606.145-.224.053-.435.105-.645.145q-.652.138-1.3.237a.167.167,0,0,0-.079.013c-.026,0-.039.013-.066.013a.365.365,0,0,0-.119.013c-.421.066-.856.119-1.277.158-.053,0-.105.013-.158.013a1.132,1.132,0,0,1-.211.013A34.425,34.425,0,0,0,416.853,65.7a28.541,28.541,0,0,1,5.834,4.531l.013.013a1.44,1.44,0,0,1-.145.132m1.04-1.093a29.438,29.438,0,0,0-6.15-4.754,33.417,33.417,0,0,0,3.424-14.3h10.378A28.992,28.992,0,0,1,423.6,69.286" transform="translate(117.77 6.033)" fill="#fff"/>
    <path id="Path_422" data-name="Path 422" d="M396.762,20.491a1.278,1.278,0,0,1,.224-.013H397c0-.013,0-.013.013-.013-.079.013-.171.013-.25.026m2.911-1.462c.211,0,.435,0,.645.013v-.013ZM379.008,70.235l-.013.013c.171.171.342.342.527.5q-.257-.237-.514-.514m23.338-49.77c-.329-.026-.659-.053-1-.066.342.013.672.04,1.014.079v-.013Z" transform="translate(120.146 6.033)" fill="#fff"/>
    <path id="Path_423" data-name="Path 423" d="M397.537,20.119v.013a1.431,1.431,0,0,1,.237.013c-.079-.013-.158-.013-.237-.026m17.951,49.77a1.312,1.312,0,0,1-.132.145,1.446,1.446,0,0,0,.145-.132ZM399.3,78.12c-.04.013-.079.013-.119.026a.365.365,0,0,1,.119-.013c.026,0,.04-.013.066-.013Zm-5.1,1.646v.013h.645c-.211,0-.435,0-.645-.013" transform="translate(124.969 6.379)" fill="#fff"/>
    <path id="Path_424" data-name="Path 424" d="M63.637,199.44v-7.481H22.269v7.481H10.245l.04.7c.013.145,1.119,14.079,11.985,14.105v1.4a20.655,20.655,0,0,0,17.516,20.44v3.464H27.84v4.03H24.521v4.03H61.385v-4.03H58.066v-4.03H46.12v-3.464a20.67,20.67,0,0,0,17.516-20.44v-1.4c10.892,0,12-13.96,12.011-14.105l.04-.7Zm-51.956,1.317H22.269v12.169c-8.429-.026-10.246-9.456-10.589-12.169m38.668,22.06-7.4-3.859-7.375,3.859L36.98,214.6,31,208.777l8.258-1.2,3.688-7.481,3.688,7.481,8.271,1.2L48.926,214.6Zm13.289-9.891V200.757H74.252c-.342,2.713-2.16,12.169-10.615,12.169" transform="translate(3.248 60.854)" fill="#fff"/>
    <path id="Path_425" data-name="Path 425" d="M111.046,443.728H62.54V404.966h1.317v37.444h47.189Z" transform="translate(19.826 128.381)" fill="#fff"/>
    <path id="Path_426" data-name="Path 426" d="M101.386,412.509l-.8,4.241-.817,4.241-2.937-2.529L85.423,430.684l-9.706-7.125-10.6,15.212-1.08-.751L75.4,421.7l9.864,7.23,10.562-11.339-2.595-2.239,4.07-1.422Z" transform="translate(20.299 130.772)" fill="#fff"/>
    <path id="Path_427" data-name="Path 427" d="M340.139,528.027a46.194,46.194,0,1,1-46.188-46.188,46.185,46.185,0,0,1,46.188,46.188" transform="translate(78.54 152.752)" fill="#79992b"/>
    <rect id="Rectangle_600" data-name="Rectangle 600" width="37.693" height="1.317" transform="translate(353.638 672.691)" fill="#fff"/>
    <rect id="Rectangle_601" data-name="Rectangle 601" width="37.693" height="1.317" transform="translate(353.638 677.907)" fill="#fff"/>
    <rect id="Rectangle_602" data-name="Rectangle 602" width="21.454" height="1.317" transform="translate(353.638 683.136)" fill="#fff"/>
    <path id="Path_428" data-name="Path 428" d="M322.434,501.447a2.751,2.751,0,0,0-2.753-2.753H291.168v-2.515h-1.317v2.515H261.338a2.753,2.753,0,1,0,0,5.505h2.134a6.075,6.075,0,0,0-2.331,4.794V536.2a6.113,6.113,0,0,0,6.111,6.1h20.941l-12.92,7.915.685,1.12,14.553-8.916,14.553,8.916.685-1.12-12.92-7.915h20.954a6.11,6.11,0,0,0,6.1-6.1v-27.21a6.075,6.075,0,0,0-2.331-4.794h2.134a2.751,2.751,0,0,0,2.753-2.753m-3.872,7.547V536.2a4.789,4.789,0,0,1-4.781,4.781h-46.53a4.792,4.792,0,0,1-4.794-4.781v-27.21a4.794,4.794,0,0,1,4.794-4.794h46.53a4.792,4.792,0,0,1,4.781,4.794m-57.224-6.111a1.436,1.436,0,0,1,0-2.871h58.344a1.436,1.436,0,1,1,0,2.871Z" transform="translate(81.975 157.297)" fill="#fff"/>
    <g id="Ellipse_194" data-name="Ellipse 194" transform="translate(294 256.001)" fill="#fff" stroke="#f3efef" stroke-width="5">
      <circle cx="79.5" cy="79.5" r="79.5" stroke="none"/>
      <circle cx="79.5" cy="79.5" r="77" fill="none"/>
    </g>
    <text id="DATA_GOVERNANCE" data-name="DATA
GOVERNANCE" transform="translate(374 329.001)" font-size="17" font-family="Verdana, sans-serif" font-weight="700" letter-spacing="0.02em"><tspan x="-21.301" y="0">DATA</tspan><tspan x="-58.276" y="19">GOVERNANCE</tspan></text>
  </g>
</svg>
